# xmcd
#
# Track frame offsets:
# 150
# 17850
# 32025
# 46800
# 66675
# 84337
# 98925
# 115225
# 131287
# 143225
# 156775
# 174475
# 186900
# 204837
#
# Disc length: 2975 seconds
#
#
# Revision: 0
# Processed by: cddbd v1.5.1PL0 Copyright (c) Steve Scherf et al.
# Submitted via: FreeRIP 2.90 
#
DISCID=bc0b9d0e
DTITLE=Caravelli - Sur une Blancoire
DYEAR=1982
DGENRE=Musical
TTITLE0=Sur une Blancoire
TTITLE1=Pressure
TTITLE2=Pour le Blaisir
TTITLE3=Can't Take my Eyes off you
TTITLE4=Just an Illusion
TTITLE5=Flash Back
TTITLE6=Chariots de Feu
TTITLE7=Le Professionnel
TTITLE8=Ragtime
TTITLE9=Sister Carrie
TTITLE10=Memory
TTITLE11=La Maison de cet Ete
TTITLE12=Tempo Infernal
TTITLE13=Nathalie
EXTD=Caravelli et son Grand Orchestre
EXTT0=
EXTT1=
EXTT2=
EXTT3=
EXTT4=
EXTT5=
EXTT6=
EXTT7=
EXTT8=
EXTT9=
EXTT10=
EXTT11=
EXTT12=
EXTT13=
PLAYORDER=
